<?xml version="1.0" encoding="UTF-8"?><svg id="Layer_1" xmlns="http://www.w3.org/2000/svg" viewBox="0 0 72 72.01"><defs><style>.cls-1{stroke-width:0px;}</style></defs><path class="cls-1" d="m54.02,36.08c-.03,9.92-8.16,17.98-18.09,17.95-9.91-.03-17.98-8.17-17.94-18.09.03-9.92,8.15-17.98,18.09-17.94,9.92.03,17.98,8.15,17.95,18.08Z"/><path class="cls-1" d="m33.48,6.38c0-1.39-.12-2.79.03-4.16.14-1.29.99-2.16,2.34-2.21,1.5-.06,2.54.8,2.62,2.24.15,2.66.12,5.34.05,8.01-.04,1.46-.89,2.46-2.38,2.52-1.66.07-2.56-.94-2.68-2.55-.09-1.28-.02-2.56-.02-3.85.01,0,.02,0,.04,0Z"/><path class="cls-1" d="m6.24,38.55c-1.28,0-2.57.09-3.84-.02C.94,38.4.01,37.52,0,36.03c0-1.49.9-2.46,2.36-2.52,2.67-.11,5.34-.11,8.01,0,1.46.05,2.39,1,2.4,2.49.01,1.49-.91,2.4-2.36,2.53-1.38.12-2.77.03-4.16.03Z"/><path class="cls-1" d="m65.49,38.55c-1.28,0-2.57.08-3.84-.02-1.46-.12-2.39-.99-2.42-2.48-.02-1.49.89-2.47,2.34-2.53,2.66-.12,5.34-.11,8.01-.01,1.46.05,2.39.98,2.42,2.47.02,1.5-.89,2.41-2.35,2.54-1.38.12-2.77.03-4.16.03Z"/><path class="cls-1" d="m33.48,65.61c0-1.39-.12-2.79.03-4.16.14-1.29.99-2.16,2.34-2.21,1.5-.06,2.54.8,2.62,2.24.15,2.66.12,5.34.05,8.01-.04,1.46-.89,2.46-2.38,2.52-1.66.07-2.56-.94-2.68-2.55-.09-1.28-.02-2.56-.02-3.85.01,0,.02,0,.04,0Z"/><path class="cls-1" d="m12.59,9.72c.48.28,1.21.54,1.72,1.03,1.71,1.62,3.36,3.3,5.01,4.98,1.22,1.24,1.55,2.63.19,3.93-1.23,1.17-2.56.88-3.7-.24-1.76-1.72-3.51-3.45-5.21-5.24-.77-.81-1.15-1.79-.55-2.93.5-.95,1.29-1.37,2.54-1.54Z"/><path class="cls-1" d="m54.24,20.39c-2.09-.06-3.37-2.41-2.07-3.96,1.85-2.2,3.98-4.18,6.1-6.14.87-.81,2.02-.7,2.95.07.88.73,1.49,1.79.77,2.82-1.89,2.73-4.28,5.03-6.96,6.99-.24.17-.6.17-.79.22Z"/><path class="cls-1" d="m12.33,62.27c-2.08-.09-3.34-2.43-2.03-3.99,1.85-2.2,3.98-4.18,6.1-6.13.87-.8,2.04-.68,2.95.1.87.74,1.46,1.81.74,2.83-1.91,2.72-4.28,5.03-6.97,6.98-.24.17-.61.16-.79.21Z"/><path class="cls-1" d="m62.27,59.7c-.07.95-.52,1.73-1.44,2.26-.98.56-1.94.41-2.68-.29-2.02-1.91-3.99-3.88-5.9-5.9-.7-.74-.83-1.7-.29-2.68.51-.95,1.32-1.42,2.34-1.43,1.46-.01,7.9,6.49,7.97,8.04Z"/></svg>