<?xml version="1.0" encoding="UTF-8"?><svg id="Layer_1" xmlns="http://www.w3.org/2000/svg" viewBox="0 0 26.49 26.49"><defs><style>.cls-1{fill:#f6f5f5;fill-rule:evenodd;stroke-width:0px;}</style></defs><path class="cls-1" d="m5.65,20.84l2.11,5.65,5.49-2.51,5.49,2.51,2.11-5.65,5.65-2.11-2.51-5.49,2.51-5.49-5.65-2.11-2.11-5.65-5.49,2.51L7.76,0l-2.11,5.65L0,7.76l2.51,5.49-2.51,5.49,5.65,2.11Zm11.67,2.26l-4.08-1.87-4.08,1.87-1.57-4.21-4.21-1.57,1.87-4.08-1.87-4.08,4.21-1.57,1.57-4.21,4.08,1.87,4.08-1.87,1.57,4.21,4.21,1.57-1.87,4.08,1.87,4.08-4.21,1.57-1.57,4.21Zm-4.08-3.6c-3.45,0-6.25-2.8-6.25-6.25s2.8-6.25,6.25-6.25,6.25,2.8,6.25,6.25-2.8,6.25-6.25,6.25Zm3.75-6.25c0,2.07-1.68,3.75-3.75,3.75s-3.75-1.68-3.75-3.75,1.68-3.75,3.75-3.75,3.75,1.68,3.75,3.75Z"/></svg>