<svg width="30" height="30" viewBox="0 0 30 30" fill="none" xmlns="http://www.w3.org/2000/svg">
<path fill-rule="evenodd" clip-rule="evenodd" d="M7.40859 22.5913L9.51416 28.2439L15 25.7358L20.4859 28.2439L22.5915 22.5913L28.2441 20.4858L25.7359 14.9999L28.2441 9.51404L22.5915 7.40847L20.4859 1.75586L15 4.264L9.51416 1.75586L7.40859 7.40847L1.75598 9.51404L4.26412 14.9999L1.75598 20.4858L7.40859 22.5913ZM19.0812 24.8528L15 22.9869L10.9188 24.8528L9.35236 20.6476L5.14708 19.0811L7.01302 14.9999L5.14708 10.9187L9.35236 9.35224L10.9188 5.14696L15 7.0129L19.0812 5.14696L20.6477 9.35224L24.853 10.9187L22.987 14.9999L24.853 19.0811L20.6477 20.6476L19.0812 24.8528ZM15 21.2499C11.5482 21.2499 8.75003 18.4517 8.75003 14.9999C8.75003 11.5481 11.5482 8.7499 15 8.7499C18.4518 8.7499 21.25 11.5481 21.25 14.9999C21.25 18.4517 18.4518 21.2499 15 21.2499ZM18.75 14.9999C18.75 17.071 17.0711 18.7499 15 18.7499C12.929 18.7499 11.25 17.071 11.25 14.9999C11.25 12.9288 12.929 11.2499 15 11.2499C17.0711 11.2499 18.75 12.9288 18.75 14.9999Z" fill="black"/>
</svg>
