<?xml version="1.0" encoding="UTF-8"?><svg id="Layer_1" xmlns="http://www.w3.org/2000/svg" viewBox="0 0 27.5 27.5"><defs><style>.cls-1{fill:#f6f5f5;fill-rule:evenodd;stroke-width:0px;}</style></defs><path class="cls-1" d="m13.75,27.5C6.16,27.5,0,21.34,0,13.75S6.16,0,13.75,0s13.75,6.16,13.75,13.75-6.16,13.75-13.75,13.75Zm9.25-7.34c1.26-1.82,2-4.03,2-6.41,0-6.21-5.04-11.25-11.25-11.25S2.5,7.54,2.5,13.75c0,2.38.74,4.59,2,6.41,1.41-1.86,4.71-2.66,9.25-2.66s7.84.8,9.25,2.66Zm-1.79,2.02c-.37-1.32-2.99-2.17-7.46-2.17s-7.09.86-7.46,2.17c1.98,1.76,4.6,2.83,7.46,2.83s5.47-1.07,7.46-2.83Zm-7.46-4.67c-2.8,0-5-1.97-5-6.25,0-2.81,1.97-5,5-5s5,2.4,5,5.25c0,4.1-2.23,6-5,6Zm-2.5-6.25c0,2.84,1.02,3.75,2.5,3.75s2.5-.88,2.5-3.5c0-1.56-.98-2.75-2.5-2.75s-2.5,1.02-2.5,2.5Z"/></svg>